<svg width="20" height="20" viewBox="0 0 20 20" fill="none" xmlns="http://www.w3.org/2000/svg">
<path d="M16.1111 6.14443C16.1111 9.72165 13.3334 10.2772 13.3334 13.6111C13.3334 15.3322 11.5984 15.4772 10.2778 15.4772C9.13725 15.4772 6.61892 15.0444 6.61892 13.61C6.61892 10.2778 3.88892 9.7222 3.88892 6.14443C3.88892 2.79387 6.82503 0.0777588 10.0461 0.0777588C13.2684 0.0777588 16.1111 2.79387 16.1111 6.14443Z" fill="#FFD983"/>
<path d="M12.315 18.0556C12.315 18.5156 11.0739 19.4445 10 19.4445C8.92611 19.4445 7.685 18.5156 7.685 18.0556C7.685 17.5956 8.92555 17.7778 10 17.7778C11.0739 17.7778 12.315 17.5956 12.315 18.0556Z" fill="#CCD6DD"/>
<path d="M12.615 5.71834C12.3978 5.50111 12.0467 5.50111 11.8295 5.71834L10 7.54778L8.17058 5.71834C7.95336 5.50111 7.60225 5.50111 7.38502 5.71834C7.1678 5.93556 7.1678 6.28667 7.38502 6.50389L9.44447 8.56334V14.4444C9.44447 14.7517 9.69336 15 10 15C10.3067 15 10.5556 14.7517 10.5556 14.4444V8.56334L12.615 6.50389C12.8322 6.28667 12.8322 5.93556 12.615 5.71834Z" fill="#FFCC4D"/>
<path d="M13.3334 17.2223C13.3334 17.8356 12.8356 18.3334 12.2222 18.3334H7.7778C7.16446 18.3334 6.66669 17.8356 6.66669 17.2223V13.8889H13.3334V17.2223Z" fill="#99AAB5"/>
<path d="M6.66611 17.7778C6.39944 17.7778 6.16388 17.585 6.11888 17.3134C6.06833 17.0112 6.27277 16.7245 6.57555 16.6745L13.2422 15.5634C13.5444 15.5089 13.8311 15.7173 13.8811 16.02C13.9317 16.3223 13.7272 16.6089 13.4244 16.6589L6.75777 17.77C6.72722 17.7756 6.69611 17.7778 6.66611 17.7778ZM6.66611 15.5556C6.39944 15.5556 6.16388 15.3628 6.11888 15.0912C6.06833 14.7889 6.27277 14.5023 6.57555 14.4523L13.2422 13.3412C13.5444 13.2873 13.8311 13.495 13.8811 13.7978C13.9317 14.1 13.7272 14.3867 13.4244 14.4367L6.75777 15.5478C6.72722 15.5534 6.69611 15.5556 6.66611 15.5556Z" fill="#CCD6DD"/>
</svg>
